<svg xmlns="http://www.w3.org/2000/svg" viewBox="0 0 781.64 124.96"><defs><style>.cls-1{fill:#fff;}</style></defs><title>Element 3</title><g id="Ebene_2" data-name="Ebene 2"><g id="Ebene_3" data-name="Ebene 3"><polygon class="cls-1" points="73.31 75 73.31 123.32 44.38 123.32 44.38 108.62 73.31 75"/><polygon class="cls-1" points="73.32 1.97 73.32 29.9 44.36 63.82 44.36 28.52 10.57 28.52 10.57 1.97 73.32 1.97"/><polygon class="cls-1" points="128.92 2.1 86.67 51.43 74.49 65.65 74.49 65.54 73.32 66.91 56.08 87.09 44.36 100.82 44.36 100.83 43.39 101.96 0 51.21 24.97 51.21 43.39 72.91 43.67 72.58 44.36 71.77 49.12 66.21 56.13 58.07 73.32 38.08 74.7 36.48 74.7 36.31 86.67 22.32 103.96 2.1 128.92 2.1"/><path class="cls-1" d="M160.52,72.93q11.11-5.18,16.33-13.51t5.22-21q0-17.52-12.39-27.12T135.85,1.69L116.54,24.23h18.77q8.4,0,12.73,4.48t4.33,12.35q0,7.88-4.29,12.27t-12.77,4.39H116.46V24.33l-26,30.32v-.11l-1.17,1.37L86.67,59v64.28h29.79v-43h16.13l21.81,43h31.92V122ZM104,2.1,86.67,22.32V51.43L128.92,2.1Z"/><path class="cls-1" d="M267.2,1.68V81.11q0,11.28-4.75,16.29t-14,5q-18.34,0-18.85-20V1.68h-30V81.86q.26,20.06,13.24,31.58T248.45,125q14.94,0,25.88-5.18a37.67,37.67,0,0,0,16.81-15.07Q297,94.81,297,81.28V1.68Z"/><path class="cls-1" d="M389.09,59.48a110.67,110.67,0,0,0-21-8.73q-12.82-4.05-17.91-7.85T345,34.42a10.59,10.59,0,0,1,4.62-8.81q4.63-3.46,12.61-3.47t12.52,4.09q4.62,4.1,4.62,11.53h29.71A34.32,34.32,0,0,0,403.26,18,37.67,37.67,0,0,0,386.84,4.68,58.43,58.43,0,0,0,363,0a66.79,66.79,0,0,0-24.62,4.31q-10.95,4.3-16.93,12a28.35,28.35,0,0,0-6,17.84q0,20.3,24,31.91a158.1,158.1,0,0,0,19,7.43q11.63,3.84,16.25,7.43a12,12,0,0,1,4.63,10A10.28,10.28,0,0,1,375,99.78q-4.29,3.14-11.67,3.13-11.55,0-16.68-4.63t-5.13-14.41H311.68a37.41,37.41,0,0,0,6.15,21.25q6.17,9.24,18.34,14.54a67.35,67.35,0,0,0,27.2,5.3q21.3,0,33.53-9.1T409.12,90.8Q409.12,70.83,389.09,59.48Z"/><path class="cls-1" d="M418.11,1.68V24.31h36.42v99h29.79v-99h37.09V1.68Z"/><path class="cls-1" d="M536,1.68V123.29h29.7V1.68Z"/><path class="cls-1" d="M669.09,24.31V1.68H586.43V123.29h29.79V74.85h48V52.29h-48v-28Z"/><path class="cls-1" d="M749.47,1.68,726.73,54.46,703.89,1.68h-32l39.72,77.93v43.68h30.21V79.61L781.64,1.68Z"/><polygon class="cls-1" points="116.46 24.23 116.54 24.23 116.46 24.33 116.46 24.23"/></g></g></svg>