<svg xmlns="http://www.w3.org/2000/svg" viewBox="0 0 661.64 105.78"><defs><style>.cls-1{fill:#1e1e1e;}.cls-2{fill:#0079b5;}</style></defs><title>Element 2</title><g id="Ebene_2" data-name="Ebene 2"><g id="Ebene_3" data-name="Ebene 3"><polygon points="62.05 63.49 62.05 104.38 37.57 104.38 37.57 91.95 62.05 63.49"/><polygon points="62.06 1.67 62.06 25.31 37.55 54.02 37.55 24.14 8.95 24.14 8.95 1.67 62.06 1.67"/><polygon class="cls-2" points="109.13 1.78 73.37 43.53 63.05 55.57 63.05 55.48 62.07 56.63 47.47 73.72 37.55 85.34 37.55 85.36 36.73 86.31 0 43.34 21.13 43.34 36.73 61.72 36.97 61.44 37.55 60.75 41.58 56.04 47.51 49.16 62.07 32.23 63.23 30.87 63.23 30.74 73.37 18.89 88 1.78 109.13 1.78"/><path d="M135.88,61.73q9.41-4.38,13.82-11.43t4.42-17.8q0-14.83-10.49-23T115,1.43L98.65,20.51h15.88c4.75,0,8.33,1.26,10.78,3.8s3.67,6,3.67,10.45-1.21,7.9-3.63,10.39-6,3.71-10.82,3.71h-16V20.6l-22,25.66v-.09l-1,1.16L73.37,50v54.41H98.58V68h13.65l18.46,36.4h27V103.3Z"/><path d="M226.18,1.42V68.66q0,9.54-4,13.79t-11.85,4.24q-15.54,0-16-16.9V1.42H169V69.29q.21,17,11.21,26.73t30.11,9.76q12.65,0,21.9-4.39a31.87,31.87,0,0,0,14.23-12.76q5-8.37,5-19.83V1.42Z"/><path d="M329.36,50.35A93.46,93.46,0,0,0,311.54,43q-10.86-3.43-15.16-6.65c-2.88-2.15-4.31-4.53-4.31-7.17A8.94,8.94,0,0,1,296,21.68q3.91-2.94,10.67-2.94t10.6,3.46q3.92,3.47,3.91,9.76h25.15a29,29,0,0,0-5-16.71A31.84,31.84,0,0,0,327.45,4a49.46,49.46,0,0,0-20.22-4,56.52,56.52,0,0,0-20.84,3.65q-9.27,3.65-14.33,10.17A24,24,0,0,0,267,28.92q0,17.19,20.33,27a133,133,0,0,0,16.1,6.28q9.84,3.25,13.75,6.29A10.16,10.16,0,0,1,321.09,77a8.71,8.71,0,0,1-3.63,7.46q-3.63,2.66-9.88,2.65-9.76,0-14.11-3.92c-2.9-2.61-4.35-6.69-4.35-12.2H263.83A31.66,31.66,0,0,0,269,89q5.2,7.83,15.52,12.31a56.92,56.92,0,0,0,23,4.49q18,0,28.39-7.71t10.34-21.21Q346.31,60,329.36,50.35Z"/><path d="M353.92,1.42V20.58h30.83v83.78H410V20.58h31.39V1.42Z"/><path d="M453.72,1.42V104.36h25.14V1.42Z"/><path d="M566.37,20.58V1.42h-70V104.36h25.22v-41h40.66V44.26H521.62V20.58Z"/><path d="M634.41,1.42,615.16,46.1,595.83,1.42H568.75l33.62,66v37h25.57v-37l33.7-66Z"/><polygon points="205.44 16.79 205.55 16.79 205.44 16.93 205.44 16.79"/></g></g></svg>